PathFileType	4	(X/Y/Z)	/home/abdul/Desktop/myosuite/custom_workspace/IK/output/01_12_1.trc
DataRate	CameraRate	NumFrames	NumMarkers	Units	OrigDataRate	OrigDataStartFrame	OrigNumFrames
200.0	200.0	28	3	mm	200.0	558	1486
Frame#	Time	V_Shoulder			V_Elbow			V_Wrist		
		X1	Y1	Z1	X2	Y2	Z2	X3	Y3	Z3

558	2.785	37.51338087001975	844.0220694170874	312.76582376911637	-54.28394985865027	602.7713724441471	158.95230570107495	53.36503995997472	626.0287463825048	365.92162317339955
559	2.79	37.54208414593962	844.0476329008912	312.7917052276056	-54.36358496757945	602.7019071118584	159.2241654610272	53.27355566350637	626.1217857300775	366.182688345626
560	2.795	37.5698168906742	844.0726997678061	312.81705407716646	-54.440665955684665	602.6331540545104	159.4914927372526	53.185357417865035	626.2142114953081	366.43913853047474
561	2.8	37.59655843691629	844.0972058075505	312.8418530061724	-54.515165077658914	602.5650098363058	159.7542978985362	53.10044018977423	626.3059904639871	366.69098156866573
562	2.805	37.62228980664883	844.12108869755	312.86608570630665	-54.58706087782542	602.4973748008326	160.01259340358837	53.018793528692484	626.3970881029404	366.9382269496182
563	2.81	37.64699377769975	844.1442881621106	312.8897369123697	-54.656338183344545	602.4301532861629	160.26639385477114	52.940401608167555	626.4874687733343	367.1808859368855
564	2.815	37.670654944717946	844.1667461247002	312.9127924385723	-54.72298807975504	602.3632538260309	160.5157160477939	52.86524327867891	626.5770959378174	367.4189716892788
565	2.82	37.69325977435456	844.1884068530261	312.9352392113233	-54.78700786901886	602.296589336484	160.76057901735672	52.79329213187853	626.6659323610573	367.65249937742306
566	2.825	37.714796654454524	844.2092170966185	312.95706529852714	-54.848401010287176	602.2300772874443	161.00100407870804	52.724516576129375	626.7539403032615	367.88148629548107
567	2.83	37.73525593708546	844.2291262166449	312.9782599354109	-54.90717704365249	602.1636398586796	161.23701486506997	52.658879923231055	626.8410817063266	368.10595196776717
568	2.835	37.75462997525315	844.248086307697	312.9988135469029	-54.96335149719617	602.0972040797287	161.46863736087641	52.59634048621368	626.9273183723025	368.3259182499652
569	2.84	37.772913153175715	844.2660523113135	313.0187177665929	-55.01694577768377	602.0307019533872	161.6958999307588	52.5368516880725	627.0126121339154	368.5414094246517
570	2.845	37.79010191001098	844.2829821210131	313.03796545230495	-55.06798704530021	601.9640705624136	161.9188333442057	52.480362181308465	627.0969250169335	368.7524522908204
571	2.85	37.806194756954305	844.2988366786345	313.0565506983209	-55.11650807285526	601.897252159175	162.13747079581333	52.42681597813043	627.1802193942139	368.95907624708997
572	2.855	37.82119228764672	844.3135800617933	313.07446884429504	-55.16254708992592	601.830194238004	162.35184792103587	52.37615259116357	627.2624581313123	369.16131336827306
573	2.86	37.835097181858146	844.327179562285	313.0917164809056	-55.20614761243724	601.7628495901024	162.56200280733412	52.32830718449229	627.3436047235862	369.3591984749752
574	2.865	37.847914202435426	844.3396057552818	313.10829145229195	-55.24735825821796	601.6951763408807	162.76797600061428	52.28321073484434	627.4236234247776	369.55276919588925
575	2.87	37.85965018553257	844.350832559185	313.12419285532775	-55.2862325491006	601.6271379696855	162.9698105068392	52.24079020269427	627.502479367123	369.74206602244976
576	2.875	37.87031402416866	844.360837286014	313.1394210357818	-55.32282870016981	601.5587033119231	163.1675517886871	52.2009687130306	627.5801386730977	369.92713235551025
577	2.88	37.879916645187336	844.3696006822347	313.15397758141984	-55.357209396796165	601.489846543652	163.36124775712648	52.16366574549164	627.6565685589602	370.108014543713
578	2.885	37.888470979719415	844.3771069599408	313.1678653120976	-55.38944156012686	601.420547148775	163.55094875776763	52.12879733353299	627.7317374303252	370.2847619132241
579	2.89	37.89599192727611	844.3833438183204	313.1810882668979	-55.41959610173809	601.3507898690216	163.7367075518469	52.09627627224418	627.8056149700378	370.45742678851815
580	2.895	37.90249631362419	844.388302455362	313.19365168836066	-55.44774766818739	601.2805646369729	163.91857929169333	52.06601233438555	627.8781722186702	370.6260645039091
581	2.9	37.90800284261548	844.3919775697706	313.20556200385755	-55.473974376235624	601.209866492435	164.09662149052647	52.0379124941678	627.9493816479912	370.7907334055434
582	2.905	37.91253204216158	844.3943673530813	313.2168268041596	-55.49835753953804	601.1386954825246	164.27089398643182	52.01188115824905	628.0192172277962	370.9514948435918
583	2.91	37.916106204560926	844.3954734719842	313.22745481924784	-55.520981387632474	601.0670565458829	164.44145890036503	51.98782040337689	628.0876544865029	371.1084131544002
584	2.915	37.918749321399766	844.3953010408932	313.2374558914139	-55.54193277807966	600.9949593814883	164.60838058804183	51.96563022005958	628.1546705659384	371.26155563238865
585	2.92	37.920487013260704	844.3938585848155	313.24684094569847	-55.561300902637356	600.922418302587	164.77172558558271	51.94520876160964	628.2202442707567	371.4109924915108
